<?xml version="1.0" encoding="UTF-8" standalone="no"?>
<!-- Created with Inkscape (http://www.inkscape.org/) -->

<svg
   version="1.1"
   id="svg162"
   width="489.30777"
   height="218.88367"
   viewBox="0 0 489.30777 218.88367"
   sodipodi:docname="ui-board.svg"
   inkscape:version="1.2.2 (b0a8486541, 2022-12-01)"
   xmlns:inkscape="http://www.inkscape.org/namespaces/inkscape"
   xmlns:sodipodi="http://sodipodi.sourceforge.net/DTD/sodipodi-0.dtd"
   xmlns:xlink="http://www.w3.org/1999/xlink"
   xmlns="http://www.w3.org/2000/svg"
   xmlns:svg="http://www.w3.org/2000/svg">
  <defs
     id="defs166">
    <inkscape:path-effect
       effect="spiro"
       id="path-effect9923"
       is_visible="true"
       lpeversion="1" />
    <inkscape:path-effect
       effect="spiro"
       id="path-effect9919"
       is_visible="true"
       lpeversion="1" />
    <inkscape:path-effect
       effect="spiro"
       id="path-effect9915"
       is_visible="true"
       lpeversion="1" />
    <inkscape:path-effect
       effect="spiro"
       id="path-effect9911"
       is_visible="true"
       lpeversion="1" />
    <inkscape:path-effect
       effect="spiro"
       id="path-effect9907"
       is_visible="true"
       lpeversion="1" />
    <inkscape:path-effect
       effect="spiro"
       id="path-effect9721"
       is_visible="true"
       lpeversion="1" />
    <inkscape:path-effect
       effect="spiro"
       id="path-effect9717"
       is_visible="true"
       lpeversion="1" />
    <inkscape:path-effect
       effect="spiro"
       id="path-effect9713"
       is_visible="true"
       lpeversion="1" />
    <inkscape:path-effect
       effect="spiro"
       id="path-effect9709"
       is_visible="true"
       lpeversion="1" />
    <inkscape:path-effect
       effect="spiro"
       id="path-effect9705"
       is_visible="true"
       lpeversion="1" />
    <inkscape:path-effect
       effect="spiro"
       id="path-effect9701"
       is_visible="true"
       lpeversion="1" />
    <inkscape:path-effect
       effect="spiro"
       id="path-effect9697"
       is_visible="true"
       lpeversion="1" />
    <inkscape:path-effect
       effect="spiro"
       id="path-effect9692"
       is_visible="true"
       lpeversion="1" />
    <inkscape:path-effect
       effect="spiro"
       id="path-effect9674"
       is_visible="true"
       lpeversion="1" />
    <inkscape:path-effect
       effect="spiro"
       id="path-effect9670"
       is_visible="true"
       lpeversion="1" />
    <inkscape:path-effect
       effect="spiro"
       id="path-effect9666"
       is_visible="true"
       lpeversion="1" />
    <inkscape:path-effect
       effect="spiro"
       id="path-effect9662"
       is_visible="true"
       lpeversion="1" />
    <inkscape:path-effect
       effect="spiro"
       id="path-effect9658"
       is_visible="true"
       lpeversion="1" />
    <inkscape:path-effect
       effect="spiro"
       id="path-effect9654"
       is_visible="true"
       lpeversion="1" />
    <inkscape:path-effect
       effect="spiro"
       id="path-effect2405"
       is_visible="true"
       lpeversion="1" />
    <inkscape:path-effect
       effect="spiro"
       id="path-effect2401"
       is_visible="true"
       lpeversion="1" />
    <linearGradient
       inkscape:collect="always"
       id="linearGradient931">
      <stop
         style="stop-color:#f9f7ec;stop-opacity:0.50588238;"
         offset="0"
         id="stop927" />
      <stop
         style="stop-color:#241809;stop-opacity:0.85469544;"
         offset="0.1797314"
         id="stop935" />
      <stop
         style="stop-color:#0c0804;stop-opacity:0.95686275;"
         offset="0.33316544"
         id="stop939" />
      <stop
         style="stop-color:#0c0804;stop-opacity:0.95490718;"
         offset="0.65591359"
         id="stop941" />
      <stop
         style="stop-color:#241809;stop-opacity:0.85490197;"
         offset="0.82347864"
         id="stop937" />
      <stop
         style="stop-color:#f9f7ec;stop-opacity:0.50476986;"
         offset="1"
         id="stop929" />
    </linearGradient>
    <linearGradient
       inkscape:collect="always"
       xlink:href="#linearGradient931"
       id="linearGradient933"
       x1="697.3786"
       y1="43.78204"
       x2="698.48364"
       y2="43.78204"
       gradientUnits="userSpaceOnUse"
       gradientTransform="matrix(3.59251,0,0,1,-1796.8937,0)" />
    <linearGradient
       inkscape:collect="always"
       xlink:href="#linearGradient931"
       id="linearGradient1016"
       gradientUnits="userSpaceOnUse"
       gradientTransform="matrix(3.59251,0,0,1,-1797.0677,0)"
       x1="697.3786"
       y1="43.78204"
       x2="698.48364"
       y2="43.78204" />
    <linearGradient
       inkscape:collect="always"
       xlink:href="#linearGradient931"
       id="linearGradient1090"
       gradientUnits="userSpaceOnUse"
       gradientTransform="matrix(3.59251,0,0,1,-1908.0831,-1.2007324e-6)"
       x1="697.3786"
       y1="43.78204"
       x2="698.48364"
       y2="43.78204" />
    <linearGradient
       inkscape:collect="always"
       xlink:href="#linearGradient931"
       id="linearGradient1164"
       gradientUnits="userSpaceOnUse"
       gradientTransform="matrix(3.59251,0,0,1,-1575.6943,-6.331543e-7)"
       x1="697.3786"
       y1="43.78204"
       x2="698.48364"
       y2="43.78204" />
    <linearGradient
       inkscape:collect="always"
       xlink:href="#linearGradient931"
       id="linearGradient1238"
       gradientUnits="userSpaceOnUse"
       gradientTransform="matrix(1.9759838,0,0,1.0789695,-1290.0111,-1022.0166)"
       x1="697.3786"
       y1="43.78204"
       x2="698.48364"
       y2="43.78204" />
    <linearGradient
       inkscape:collect="always"
       xlink:href="#linearGradient931"
       id="linearGradient1312"
       gradientUnits="userSpaceOnUse"
       gradientTransform="matrix(1.9759838,0,0,1.0789695,-1238.8065,-1022.0166)"
       x1="697.3786"
       y1="43.78204"
       x2="698.48364"
       y2="43.78204" />
    <linearGradient
       inkscape:collect="always"
       xlink:href="#linearGradient931"
       id="linearGradient1386"
       gradientUnits="userSpaceOnUse"
       gradientTransform="matrix(3.0951304,-5.7083764e-8,-3.2288392e-8,1.5443668,-1838.2779,-507.23838)"
       x1="697.3786"
       y1="43.78204"
       x2="698.48364"
       y2="43.78204" />
    <linearGradient
       inkscape:collect="always"
       xlink:href="#linearGradient931"
       id="linearGradient2292"
       gradientUnits="userSpaceOnUse"
       gradientTransform="matrix(1.0268315,-2.9198372,-1.4077789,-0.63500182,-147.48484,2261.8464)"
       x1="697.3786"
       y1="43.78204"
       x2="698.48364"
       y2="43.78204" />
    <inkscape:path-effect
       effect="spiro"
       id="path-effect9705-0"
       is_visible="true"
       lpeversion="1" />
    <inkscape:path-effect
       effect="spiro"
       id="path-effect9709-6"
       is_visible="true"
       lpeversion="1" />
  </defs>
  <sodipodi:namedview
     id="namedview164"
     pagecolor="#ffffff"
     bordercolor="#666666"
     borderopacity="1.0"
     inkscape:showpageshadow="2"
     inkscape:pageopacity="0.0"
     inkscape:pagecheckerboard="false"
     inkscape:deskcolor="#d1d1d1"
     showgrid="false"
     inkscape:zoom="1"
     inkscape:cx="272.5"
     inkscape:cy="299"
     inkscape:window-width="1920"
     inkscape:window-height="1005"
     inkscape:window-x="0"
     inkscape:window-y="0"
     inkscape:window-maximized="1"
     inkscape:current-layer="g168" />
  <g
     inkscape:groupmode="layer"
     inkscape:label="Image"
     id="g168"
     style="display:inline;opacity:1;fill:#9b5a44"
     transform="translate(-496.6007,-33.232347)">
    <rect
       style="display:inline;fill:#e9cea8;stroke:#000000;stroke-width:6.368;stroke-linecap:round;stroke-linejoin:round;stroke-dasharray:none;paint-order:stroke markers fill"
       id="rect328"
       width="482.93976"
       height="212.51567"
       x="499.7847"
       y="36.416348"
       ry="20.301435" />
    <rect
       style="display:inline;opacity:0.727883;fill:url(#linearGradient1016);fill-opacity:1;stroke:none;stroke-width:10.4948;stroke-linecap:round;stroke-linejoin:round;paint-order:stroke fill markers"
       id="rect348-6"
       width="3.9698486"
       height="14.731381"
       x="708.27191"
       y="36.416348"
       ry="0" />
    <rect
       style="opacity:0.727883;fill:url(#linearGradient933);fill-opacity:1;stroke:none;stroke-width:10.4948;stroke-linecap:round;stroke-linejoin:round;paint-order:stroke fill markers"
       id="rect348"
       width="3.9698486"
       height="14.731381"
       x="708.44592"
       y="36.416348"
       ry="0" />
    <rect
       style="display:inline;opacity:0.727883;fill:url(#linearGradient1164);fill-opacity:1;stroke:none;stroke-width:10.4948;stroke-linecap:round;stroke-linejoin:round;paint-order:stroke fill markers"
       id="rect348-1"
       width="3.9698486"
       height="14.731381"
       x="929.64532"
       y="36.416348"
       ry="0" />
    <rect
       style="display:inline;opacity:0.727883;fill:url(#linearGradient1238);fill-opacity:1;stroke:none;stroke-width:8.08483;stroke-linecap:round;stroke-linejoin:round;paint-order:stroke fill markers"
       id="rect348-1-3"
       width="2.1835308"
       height="15.894711"
       x="87.997765"
       y="-982.72449"
       ry="0"
       transform="rotate(90)" />
    <rect
       style="display:inline;opacity:0.727883;fill:url(#linearGradient1312);fill-opacity:1;stroke:none;stroke-width:8.08483;stroke-linecap:round;stroke-linejoin:round;paint-order:stroke fill markers"
       id="rect348-1-3-9"
       width="2.1835308"
       height="15.894711"
       x="139.20235"
       y="-982.72449"
       ry="0"
       transform="rotate(90)" />
    <rect
       style="display:inline;opacity:0.727883;fill:url(#linearGradient1090);fill-opacity:1;stroke:none;stroke-width:10.4948;stroke-linecap:round;stroke-linejoin:round;paint-order:stroke fill markers"
       id="rect348-9"
       width="3.9698486"
       height="14.731381"
       x="597.25641"
       y="36.416348"
       ry="0" />
    <rect
       style="display:inline;fill:#9b5a44;stroke:#000000;stroke-width:5.5893;stroke-linecap:round;stroke-linejoin:round;paint-order:stroke fill markers"
       id="rect328-3"
       width="445.56113"
       height="177.46359"
       x="518.474"
       y="53.942379"
       ry="10.965912" />
    <path
       style="fill:none;stroke:#000000;stroke-width:2.2;stroke-linecap:butt;stroke-linejoin:miter;stroke-dasharray:none;stroke-opacity:0.619737"
       d="m 727.10039,232.48497 c 0,0 -23.98882,8.94501 -25.6268,17.21016 v 0"
       id="path2349"
       sodipodi:nodetypes="ccc" />
    <path
       id="rect1396"
       style="display:inline;opacity:0.727883;fill:url(#linearGradient1386);stroke-width:12.1057;stroke-linecap:round;stroke-linejoin:round;paint-order:stroke fill markers"
       transform="matrix(0.33175708,0.94336485,-0.91155735,0.41117295,0,0)"
       d="M 320.19977,-450.99826 H 323.62 v 20.50261 l -3.42023,-1.24478 z"
       sodipodi:nodetypes="ccccc" />
    <path
       id="rect1396-5"
       style="display:inline;opacity:0.727883;fill:url(#linearGradient2292);stroke-width:12.0835;stroke-linecap:round;stroke-linejoin:round;paint-order:stroke fill markers"
       d="m 517.33932,202.49005 1.13468,-3.22652 -18.6893,-8.43012 v 3.73835 z"
       sodipodi:nodetypes="ccccc" />
    <path
       style="display:inline;opacity:1;fill:none;stroke:#000000;stroke-width:1px;stroke-linecap:butt;stroke-linejoin:miter;stroke-opacity:1"
       d="m 518.474,108.92934 c 11.79467,3.07984 24.12643,4.09121 36.2653,2.97425 5.82252,-0.53576 11.64182,-1.55759 17.47811,-1.20194 5.94137,0.36205 11.7096,2.14206 17.62635,2.79243 7.04375,0.77425 14.15052,-0.064 21.20672,-0.71508 35.98842,-3.3205 72.26197,-1.76241 108.2702,1.33591 11.25007,0.96801 22.60761,2.08414 33.79527,0.55529 8.75445,-1.19634 17.33463,-4.00467 26.17024,-3.94442 7.45554,0.0508 14.7601,2.14873 22.20633,2.52452 5.80449,0.29293 11.6031,-0.464 17.38251,-1.0775 17.57013,-1.86511 35.27983,-2.41405 52.93174,-1.64072"
       id="path9652"
       inkscape:path-effect="#path-effect9654"
       inkscape:original-d="m 518.474,108.92934 c 12.08944,0.99241 24.17787,1.98383 36.2653,2.97425 12.08743,0.99041 11.65307,-0.8003 17.47811,-1.20194 5.82504,-0.40165 11.7519,1.86262 17.62635,2.79243 5.87446,0.92981 14.13882,-0.47572 21.20672,-0.71508 7.06791,-0.23936 72.18114,0.89161 108.2702,1.33591 36.08907,0.44431 22.53118,0.37119 33.79527,0.55529 11.26408,0.1841 17.44783,-2.62861 26.17024,-3.94442 8.72242,-1.31581 14.80522,1.68401 22.20633,2.52452 7.40111,0.84051 11.58934,-0.71734 17.38251,-1.0775 5.79317,-0.36017 35.28883,-1.09282 52.93174,-1.64072" />
    <path
       style="display:inline;opacity:1;fill:none;stroke:#000000;stroke-width:1px;stroke-linecap:butt;stroke-linejoin:miter;stroke-opacity:1"
       d="m 518.474,179.6417 c 5.2152,0.38834 10.45108,0.49894 15.67803,0.33119 14.69183,-0.47152 29.21559,-3.13397 43.83679,-4.64808 29.88509,-3.09478 60.03417,-1.38197 90.0341,0.2613 20.50665,1.12327 41.02627,2.21295 61.56364,2.24177 30.21094,0.0424 60.40253,-2.21102 90.60907,-1.69348 7.80001,0.13364 15.78821,0.42597 23.19651,-2.01845 9.69262,-3.19814 17.65819,-11.22281 20.78461,-20.93881"
       id="path9660"
       inkscape:path-effect="#path-effect9662"
       inkscape:original-d="m 518.474,179.6417 c 5.22701,0.11139 10.45302,0.22179 15.67803,0.33119 5.22501,0.10939 29.22553,-3.09772 43.83679,-4.64808 14.61126,-1.55035 60.02374,0.1752 90.0341,0.2613 30.01037,0.0861 41.04343,1.49551 61.56364,2.24177 20.52021,0.74626 60.40705,-1.12799 90.60907,-1.69348 30.20203,-0.56549 15.46534,-1.34463 23.19651,-2.01845 7.73117,-0.67382 13.8574,-13.95821 20.78461,-20.93881" />
    <path
       style="display:inline;opacity:1;fill:none;stroke:#000000;stroke-width:1px;stroke-linecap:butt;stroke-linejoin:miter;stroke-opacity:1"
       d="m 841.29291,115.92418 c 10.26435,-1.63207 20.61722,-2.70725 30.99789,-3.21921 14.16863,-0.69878 28.36565,-0.34856 42.55046,-0.5201 16.42629,-0.19864 32.8441,-1.09761 49.19387,-2.69365"
       id="path9664"
       inkscape:path-effect="#path-effect9666"
       inkscape:original-d="m 841.29291,115.92418 c 10.33363,-1.07207 20.66626,-2.14514 30.99789,-3.21921 10.33163,-1.07406 28.36797,-0.34573 42.55046,-0.5201 14.18248,-0.17437 32.79691,-1.79477 49.19387,-2.69365" />
    <path
       style="display:inline;opacity:1;fill:none;stroke:#000000;stroke-width:1px;stroke-linecap:butt;stroke-linejoin:miter;stroke-opacity:1"
       d="m 518.474,72.475742 c 19.60628,-2.21366 39.47698,-2.075829 59.05066,0.4096 21.49942,2.729955 42.62197,8.275158 64.23326,9.896916 12.65186,0.949423 25.38074,0.545574 38.02208,1.626105 41.8967,3.581161 81.4367,23.300787 123.46655,24.585227 9.46847,0.28936 18.93754,-0.36691 28.4087,-0.54803 13.41073,-0.25645 26.83961,0.44139 40.15152,2.08652"
       id="path9668"
       inkscape:path-effect="#path-effect9670"
       inkscape:original-d="m 518.474,72.475742 c 19.68455,0.137533 39.36811,0.274067 59.05066,0.4096 19.68255,0.135533 42.82318,6.598944 64.23326,9.896916 21.41009,3.297972 25.34905,1.08507 38.02208,1.626105 12.67302,0.541035 82.31203,16.391147 123.46655,24.585227 41.15452,8.19407 18.94013,-0.36435 28.4087,-0.54803 9.46857,-0.18367 26.76868,1.39201 40.15152,2.08652" />
    <path
       style="display:inline;opacity:1;fill:none;stroke:#000000;stroke-width:1px;stroke-linecap:butt;stroke-linejoin:miter;stroke-opacity:1"
       d="m 796.90485,170.161 c 11.31528,0.97276 22.70408,1.08908 34.03687,0.34763 5.7416,-0.37565 11.63784,-1.02031 16.71786,-3.72227 4.61679,-2.45557 8.32089,-6.57806 10.28537,-11.42423 1.96448,-4.84618 2.17747,-10.37834 0.60693,-15.36612 -1.98235,-6.29563 -6.72165,-11.54659 -12.49488,-14.74574 -5.77323,-3.19915 -12.50888,-4.43912 -19.10413,-4.1796 -4.49935,0.17705 -8.99323,1.03823 -13.14604,2.77881 -4.15282,1.74058 -7.95848,4.37762 -10.85596,7.82437 -2.89749,3.44675 -4.85991,7.71663 -5.34017,12.19378 -0.48025,4.47714 0.56643,9.14424 3.11867,12.8539 2.33916,3.39994 5.84141,5.89622 9.65441,7.4749 3.81301,1.57868 7.9369,2.28622 12.05261,2.58993 6.80902,0.50246 13.89771,-0.13392 19.94349,-3.30627 3.02289,-1.58617 5.7393,-3.80002 7.74452,-6.56278 2.00523,-2.76277 3.27922,-6.08384 3.44043,-9.4938 0.15887,-3.36039 -0.76786,-6.74244 -2.48843,-9.63331 -1.72057,-2.89087 -4.21619,-5.29392 -7.09291,-7.03803 -5.75346,-3.48823 -12.8518,-4.2737 -19.50735,-3.28696 -4.98093,0.73846 -9.93976,2.49284 -13.69892,5.84301 -1.87958,1.67509 -3.43193,3.73571 -4.4091,6.05604 -0.97716,2.32032 -1.36664,4.90255 -0.99469,7.39261 0.41176,2.75658 1.75063,5.34237 3.64611,7.38576 1.89547,2.0434 4.33041,3.55468 6.94995,4.50666 5.2391,1.90397 11.05447,1.57193 16.48894,0.3311 3.83758,-0.87622 7.66544,-2.24208 10.67435,-4.78003 1.50446,-1.26898 2.78276,-2.82374 3.6312,-4.59964 0.84843,-1.77591 1.2563,-3.77686 1.05407,-5.73461 -0.21963,-2.12619 -1.15632,-4.15303 -2.5357,-5.78589 -1.37937,-1.63286 -3.18787,-2.87948 -5.15635,-3.71255 -3.93695,-1.66613 -8.3916,-1.67503 -12.61914,-1.03978 -2.36466,0.35533 -4.72147,0.91053 -6.87557,1.94864 -2.15411,1.03811 -4.10584,2.58774 -5.34934,4.63018 -1.26314,2.0747 -1.73906,4.61602 -1.31224,7.0072 0.42682,2.39118 1.75257,4.61091 3.65549,6.12047 1.90293,1.50956 4.36608,2.29551 6.79165,2.1671 2.42558,-0.12841 4.79197,-1.17004 6.52487,-2.87209"
       id="path9672"
       inkscape:path-effect="#path-effect9674"
       inkscape:original-d="m 796.90485,170.161 c 11.34662,0.11687 22.69225,0.23275 34.03687,0.34763 11.34462,0.11488 11.14624,-2.48052 16.71786,-3.72227 5.57162,-1.24176 7.26253,-17.85923 10.8923,-26.79035 3.62976,-8.93111 -21.06501,-12.61589 -31.59901,-18.92534 -10.534,-6.30945 -17.48133,23.76824 -26.2235,35.65086 -8.74217,11.88262 14.47235,6.71088 21.70702,10.06483 7.23468,3.35394 20.7533,-12.90756 31.12844,-19.36285 10.37515,-6.45528 -19.39146,-13.30453 -29.08869,-19.9583 -9.69723,-6.65377 -12.73414,12.86211 -19.10271,19.29166 -6.36857,6.42956 18.05766,8.15002 27.085,12.22352 9.02733,4.07351 10.24075,-10.07519 15.35962,-15.11428 5.11888,-5.0391 -13.53979,-7.02448 -20.31119,-10.53822 -6.77139,-3.51374 -8.14894,4.38688 -12.22491,6.57882 -4.07597,2.19194 7.01663,9.84802 15.65977,12.42268"
       sodipodi:nodetypes="csssssssssssssc" />
    <path
       style="display:inline;opacity:1;fill:none;stroke:#000000;stroke-width:1px;stroke-linecap:butt;stroke-linejoin:miter;stroke-opacity:1"
       d="m 518.4179,82.780807 c 18.2683,-3.238641 36.99096,-3.90358 55.44299,-1.969069 21.44617,2.248416 42.42953,7.973041 63.9062,9.908612 15.82886,1.426566 31.79058,0.781511 47.61805,2.223353 26.77042,2.438716 52.67727,10.795317 79.34398,14.184877 23.36724,2.97017 47.02447,2.0937 70.57903,2.27379 12.17278,0.0931 24.34339,0.46977 36.49862,1.12971"
       id="path9690"
       inkscape:path-effect="#path-effect9692"
       inkscape:original-d="m 518.4179,82.780807 c 10.45609,-1.115996 36.9827,-3.062494 55.44299,-1.969069 21.51889,1.27459 42.45781,7.751374 63.9062,9.908612 15.81021,1.590161 31.78079,0.930055 47.61805,2.223353 13.37622,1.092326 65.1744,11.825407 79.34398,14.184877 36.7634,6.12172 -1651.53632,51.95805 70.57903,2.27379 328.82995,-9.486976 -6.83076,-2.45119 36.49862,1.12971"
       sodipodi:nodetypes="caasssc" />
    <path
       style="fill:none;stroke:#000000;stroke-width:1px;stroke-linecap:butt;stroke-linejoin:miter;stroke-opacity:1"
       d="m 521.48018,227.99736 c 27.34681,-8.20511 55.37977,-14.12209 83.70983,-17.66883 49.04648,-6.1403 98.72856,-5.16226 148.04491,-1.82189 21.26412,1.44029 42.56421,3.31888 63.85676,2.38914 21.29256,-0.92974 42.75704,-4.77906 61.85784,-14.23405 6.41521,-3.17556 12.57051,-6.99933 17.74852,-11.94173 5.17801,-4.9424 9.3581,-11.06029 11.35714,-17.93364 1.64687,-5.6625 1.77217,-11.75986 0.3593,-17.48524 -1.41286,-5.72537 -4.36035,-11.06446 -8.45244,-15.31074"
       id="path9695"
       inkscape:path-effect="#path-effect9697"
       inkscape:original-d="m 521.48018,227.99736 c 28.90634,-7.02482 54.80549,-10.64201 83.70983,-17.66883 28.90433,-7.02681 98.69761,-1.21359 148.04491,-1.82189 49.34731,-0.60829 83.81073,-7.89561 125.7146,-11.84491 41.90387,-3.9493 19.40478,-19.91592 29.10566,-29.87537 9.70089,-9.95946 -8.38838,-23.60031 -8.09314,-32.79598"
       sodipodi:nodetypes="cssssc" />
    <path
       style="fill:none;stroke:#000000;stroke-width:1px;stroke-linecap:butt;stroke-linejoin:miter;stroke-opacity:1"
       d="m 517.33932,202.49005 c 38.08978,-10.06925 77.32657,-15.79283 116.70556,-17.02416 60.10632,-1.87944 119.98032,6.65846 179.9446,11.19584 13.18033,0.99733 26.63968,1.77872 39.4361,-1.53301 6.39821,-1.65587 12.57297,-4.34805 17.86514,-8.30682 5.29217,-3.95878 9.6786,-9.21925 12.19004,-15.33248 2.17624,-5.29729 2.90902,-11.17944 2.09899,-16.84876 -0.81004,-5.66931 -3.16078,-11.11089 -6.73342,-15.58677"
       id="path9699"
       inkscape:path-effect="#path-effect9701"
       inkscape:original-d="m 517.33932,202.49005 c 38.90285,-5.67372 77.8047,-11.34844 116.70556,-17.02416 38.90085,-5.67572 119.96407,7.46489 179.9446,11.19584 59.98054,3.73095 46.32852,-16.78054 69.49128,-25.17231 23.16276,-8.39177 -3.08862,-21.62269 -4.63443,-32.43553" />
    <path
       style="fill:none;stroke:#000000;stroke-width:1px;stroke-linecap:butt;stroke-linejoin:miter;stroke-opacity:1"
       d="m 518.474,142.67418 c 20.4534,-7.19578 42.29376,-10.42596 63.95445,-9.45883 20.05682,0.89552 39.75854,5.32991 59.51163,8.92066 19.75309,3.59075 39.94265,6.35446 59.86605,3.87732 22.28473,-2.77073 43.20014,-11.954 64.90098,-17.72976 19.6098,-5.21922 39.95811,-7.65542 60.24576,-7.2129"
       id="path9703"
       inkscape:path-effect="#path-effect9705"
       inkscape:original-d="m 518.474,142.67418 c 21.31915,-3.15194 42.6373,-6.30489 63.95445,-9.45883 21.31716,-3.15394 79.58612,8.53299 119.37768,12.79798 39.79155,4.26499 43.26832,-11.81884 64.90098,-17.72976 21.63266,-5.91092 40.16484,-4.8076 60.24576,-7.2129" />
    <path
       style="display:inline;fill:none;stroke:#000000;stroke-width:1px;stroke-linecap:butt;stroke-linejoin:miter;stroke-opacity:1"
       d="m 518.39648,156.14518 c 18.69854,-9.47227 39.80068,-14.15152 60.75053,-13.471 20.71953,0.67304 40.87696,6.44776 61.04169,11.25771 20.16473,4.80994 41.05004,8.70156 61.53991,5.55244 25.23893,-3.87902 47.54782,-18.02144 71.44393,-27.02289 16.14527,-6.08178 33.16394,-9.83952 50.36901,-11.12152"
       id="path9703-3"
       inkscape:path-effect="#path-effect9705-0"
       inkscape:original-d="m 518.39648,156.14518 c 21.31915,-3.15194 39.43338,-10.31706 60.75053,-13.471 21.31716,-3.15394 82.79004,12.54516 122.5816,16.81015 39.79155,4.26499 49.81127,-21.11197 71.44393,-27.02289 21.63266,-5.91092 30.28809,-8.71622 50.36901,-11.12152"
       sodipodi:nodetypes="csssc" />
    <path
       style="fill:none;stroke:#000000;stroke-width:1px;stroke-linecap:butt;stroke-linejoin:miter;stroke-opacity:1"
       d="m 964.03513,96.630386 c -10.29522,4.273344 -21.28538,6.867164 -32.40488,7.647984 -15.06195,1.05766 -30.13988,-1.18833 -45.22953,-1.7208 -26.84323,-0.94721 -53.86276,3.52499 -80.49335,0.0224 -25.80977,-3.394634 -50.10615,-14.137031 -75.68456,-18.975706 -30.1301,-5.699719 -61.22205,-3.073108 -91.67377,-6.678994 -23.17663,-2.744419 -45.81681,-9.080263 -68.99985,-11.769958 -16.94929,-1.966455 -34.1259,-1.966455 -51.07519,0"
       id="path9707"
       inkscape:path-effect="#path-effect9709"
       inkscape:original-d="m 964.03513,96.630386 c -10.80063,2.550327 -21.60226,5.099654 -32.40488,7.647984 -10.80263,2.54832 -30.15202,-1.1462 -45.22953,-1.7208 -15.07751,-0.5746 -53.66123,0.016 -80.49335,0.0224 -26.83212,0.006 -50.45538,-12.64947 -75.68456,-18.975706 -25.22919,-6.326236 -61.11485,-4.451663 -91.67377,-6.678994 -30.55892,-2.227331 -45.9989,-7.845639 -68.99985,-11.769958 -23.00095,-3.92432 -34.04913,0.001 -51.07519,0" />
    <path
       style="display:inline;fill:none;stroke:#000000;stroke-width:1px;stroke-linecap:butt;stroke-linejoin:miter;stroke-opacity:1"
       d="m 964.03513,77.326477 c -8.32704,11.279815 -21.9029,18.508422 -35.91001,19.120658 -14.12241,0.617276 -27.70809,-5.074301 -41.72437,-6.909386 -13.74094,-1.799037 -27.671,0.134935 -41.36722,2.247654 -13.69622,2.112719 -27.52319,4.414419 -41.34012,3.34559 -26.51077,-2.050779 -50.44404,-16.214156 -76.2087,-22.787494 -29.75282,-7.590838 -61.02123,-4.86988 -91.67377,-6.678991 -24.34669,-1.43694 -48.52083,-5.775556 -71.84771,-12.894753"
       id="path9707-1"
       inkscape:path-effect="#path-effect9709-6"
       inkscape:original-d="m 964.03513,77.326477 c -10.8007,2.55032 -25.10741,16.572328 -35.91001,19.120658 -10.8026,2.54832 -26.64687,-6.334786 -41.72437,-6.909386 -15.0775,-0.5746 -55.87524,5.586844 -82.70734,5.593244 -26.83211,0.006 -50.97952,-16.461254 -76.2087,-22.787494 -25.22919,-6.326233 -61.11485,-4.45166 -91.67377,-6.678991 -30.55892,-2.227331 -48.84676,-8.970434 -71.84771,-12.894753"
       sodipodi:nodetypes="csscssc" />
    <path
       style="fill:none;stroke:#000000;stroke-width:1px;stroke-linecap:butt;stroke-linejoin:miter;stroke-opacity:1"
       d="m 540.24563,231.45429 c 37.96367,-9.27411 76.61563,-15.72938 115.53266,-19.29513 43.42202,-3.97852 87.17324,-4.35813 130.65775,-1.13367"
       id="path9711"
       inkscape:path-effect="#path-effect9713"
       inkscape:original-d="m 540.24563,231.45429 c 38.51188,-6.43071 77.02277,-12.86242 115.53266,-19.29513 38.50988,-6.43271 87.10617,-0.75478 130.65775,-1.13367" />
    <path
       style="fill:none;stroke:#000000;stroke-width:1px;stroke-linecap:butt;stroke-linejoin:miter;stroke-opacity:1"
       d="m 853.08685,231.94001 c 18.92948,-4.40117 36.45912,-14.64033 49.59131,-28.96657 7.84307,-8.5562 14.16217,-18.59274 17.87363,-29.59035 3.71145,-10.99762 4.75714,-22.9693 2.37463,-34.32914 -1.50897,-7.19481 -4.37736,-14.10209 -8.40894,-20.24934"
       id="path9715"
       inkscape:path-effect="#path-effect9717"
       inkscape:original-d="m 853.08685,231.94001 c 16.53144,-9.65452 33.06187,-19.31004 49.59131,-28.96657 16.52943,-9.65652 13.49984,-42.61199 20.24826,-63.91949 6.74842,-21.3075 -5.60496,-13.49856 -8.40894,-20.24934" />
    <path
       style="fill:none;stroke:#000000;stroke-width:1px;stroke-linecap:butt;stroke-linejoin:miter;stroke-opacity:1"
       d="m 902.64905,232.42702 c 13.23148,-8.91476 24.03646,-21.39432 30.96612,-35.76529 12.79926,-26.54358 11.52166,-59.4016 -3.3,-84.87121"
       id="path9719"
       inkscape:path-effect="#path-effect9721"
       inkscape:original-d="m 902.64905,232.42702 c 10.32304,-11.92076 20.64508,-23.84253 30.96612,-35.76529 10.32104,-11.92276 -2.199,-56.57981 -3.3,-84.87121" />
    <path
       style="fill:none;stroke:#000000;stroke-width:1px;stroke-linecap:butt;stroke-linejoin:miter;stroke-opacity:1"
       d="m 803.8038,70.412394 c -0.19194,0.40426 -0.50043,0.752357 -0.87869,0.991493 -0.37826,0.239135 -0.82503,0.368515 -1.27254,0.368515 -0.44752,0 -0.89429,-0.12938 -1.27255,-0.368515 -0.37826,-0.239136 -0.68675,-0.587233 -0.87869,-0.991493 -0.30342,-0.639061 -0.30356,-1.407572 -0.031,-2.060376 0.2726,-0.652804 0.80688,-1.185518 1.4466,-1.487534 0.63973,-0.302017 1.37809,-0.377336 2.07302,-0.244872 0.69492,0.132463 1.34535,0.467667 1.88041,0.930452 0.68409,0.591681 1.18231,1.393506 1.41777,2.266792 0.23546,0.873285 0.20837,1.81441 -0.0691,2.675279 -0.27745,0.860868 -0.8033,1.638942 -1.49326,2.223761 -0.68997,0.584819 -1.54141,0.975452 -2.43339,1.125252 -1.63726,0.274962 -3.37973,-0.292454 -4.58791,-1.431107 -1.20817,-1.138652 -1.87409,-2.812009 -1.8468,-4.471974 0.0273,-1.659964 0.73018,-3.287103 1.87052,-4.493686 1.14034,-1.206584 2.70009,-1.993542 4.33811,-2.26392 2.2711,-0.374876 4.68652,0.255335 6.49533,1.678947 1.8088,1.423611 2.98715,3.616024 3.19313,5.908626 0.20597,2.292601 -0.55884,4.653698 -2.0572,6.401088 -1.49835,1.74739 -3.70812,2.861805 -6.00268,3.044672 -2.36252,0.188283 -4.77828,-0.607201 -6.60328,-2.119263 -1.825,-1.512062 -3.04941,-3.715941 -3.42565,-6.055898 -0.37623,-2.339957 0.0874,-4.797007 1.24052,-6.867601 1.15308,-2.070593 2.98097,-3.748361 5.11803,-4.773026 3.41671,-1.638228 7.61471,-1.536426 10.948,0.26549 3.33329,1.801917 5.71776,5.258486 6.21849,9.014412 0.50073,3.755925 -0.89493,7.716448 -3.63974,10.328674 -2.74481,2.612226 -6.76952,3.810251 -10.49608,3.124338"
       id="path9905"
       inkscape:path-effect="#path-effect9907"
       inkscape:original-d="m 803.8038,70.412394 c -1.43316,10e-4 -2.86732,10e-4 -4.30247,0 -1.43516,-0.001 3.58038,-1.90722 5.36907,-2.86233 1.7887,-0.95511 -1.71763,5.528389 -2.57795,8.291084 -0.86032,2.762695 -0.14972,-8.439458 -0.22608,-12.660687 -0.0764,-4.221229 1.08672,11.356556 1.62858,17.033333 0.54186,5.676778 -2.44592,-13.209525 -3.67038,-19.815788 -1.22446,-6.606262 2.02145,15.156276 3.03067,22.732914"
       sodipodi:nodetypes="cssssssc" />
    <path
       style="fill:none;stroke:#000000;stroke-width:1px;stroke-linecap:butt;stroke-linejoin:miter;stroke-opacity:1"
       d="m 803.05524,83.13092 c -7.72312,-1.895494 -15.24636,-4.604274 -22.40516,-8.067081 -2.59031,-1.25297 -5.13352,-2.604501 -7.7574,-3.785565 -13.56656,-6.106595 -28.74681,-7.441254 -43.60988,-8.097813 -34.2579,-1.513304 -68.73593,0.117495 -102.72222,-4.44603 -8.82035,-1.184357 -17.58492,-2.784066 -26.25495,-4.792052"
       id="path9909"
       inkscape:path-effect="#path-effect9911"
       inkscape:original-d="m 803.05524,83.13092 c -7.46739,-2.688027 -14.93577,-5.377054 -22.40516,-8.067081 -7.46939,-2.690027 -5.1706,-2.52271 -7.7574,-3.785565 -2.5868,-1.262855 -29.07225,-5.397542 -43.60988,-8.097813 -14.53762,-2.700271 -68.48048,-2.96302 -102.72222,-4.44603 -34.24174,-1.48301 -17.5023,-3.193701 -26.25495,-4.792052" />
    <path
       style="fill:none;stroke:#000000;stroke-width:1px;stroke-linecap:butt;stroke-linejoin:miter;stroke-opacity:1"
       d="m 962.95499,60.141791 c -0.78924,6.183715 -3.3015,12.138435 -7.1801,17.01877 -3.8786,4.880335 -9.11235,8.672179 -14.95819,10.837204 -9.76017,3.614705 -20.6181,2.619741 -30.79753,0.450344 -10.17942,-2.169397 -20.16927,-5.466806 -30.53926,-6.355797 -11.58016,-0.992736 -23.18426,1.055013 -34.60831,3.194349 -11.42404,2.139337 -22.96478,4.389094 -34.57262,3.802869 -18.18569,-0.918423 -35.19646,-8.684546 -52.46955,-14.446765 -26.28637,-8.769007 -54.0661,-13.042352 -81.77267,-12.579056"
       id="path9913"
       inkscape:path-effect="#path-effect9915"
       inkscape:original-d="m 962.95499,60.141791 c -7.37843,9.286325 -14.75786,18.571649 -22.13829,27.855974 -7.38043,9.284324 -40.89019,-3.935969 -61.33679,-5.905453 -20.4466,-1.969484 -46.11962,4.665812 -69.18093,6.997218 -23.06131,2.331406 -34.9787,-9.630177 -52.46955,-14.446765 -17.49084,-4.816589 -54.51411,-8.385037 -81.77267,-12.579056" />
    <path
       style="fill:none;stroke:#000000;stroke-width:1px;stroke-linecap:butt;stroke-linejoin:miter;stroke-opacity:1"
       d="m 929.64532,74.642765 c 0.0692,-0.364455 0.26896,-0.702712 0.5547,-0.939296 0.28573,-0.236584 0.65532,-0.369731 1.02629,-0.369731 0.37096,0 0.74055,0.133147 1.02628,0.369731 0.28574,0.236584 0.48549,0.574841 0.5547,0.939296 0.0531,0.27962 0.0308,0.570556 -0.0418,0.845751 -0.10423,0.394949 -0.3125,0.761491 -0.59586,1.055696 -0.28335,0.294205 -0.64096,0.515728 -1.02948,0.64183 -0.77704,0.252204 -1.66711,0.103742 -2.33577,-0.365608 -0.66866,-0.469351 -1.10757,-1.243261 -1.19399,-2.055618 -0.0864,-0.812357 0.17358,-1.65098 0.68328,-2.28941 0.44554,-0.558059 1.07564,-0.964287 1.76539,-1.149163 0.68975,-0.184877 1.43545,-0.148982 2.10762,0.0921 0.67217,0.24108 1.26862,0.685085 1.70027,1.253952 0.43166,0.568866 0.69812,1.259994 0.76992,1.970472 0.13071,1.293503 -0.40774,2.628589 -1.37365,3.498788 -0.96592,0.8702 -2.33005,1.266747 -3.61794,1.089088 -1.07655,-0.148506 -2.09332,-0.686033 -2.83097,-1.484095 -0.73764,-0.798063 -1.19277,-1.849774 -1.28138,-2.932905 -0.0886,-1.083131 0.18779,-2.19113 0.76472,-3.112095 0.57693,-0.920964 1.44984,-1.651207 2.4537,-2.067479 0.95389,-0.395548 2.02127,-0.508284 3.03889,-0.332778 1.01762,0.175507 1.9827,0.63725 2.76592,1.310243 0.78322,0.672994 1.38355,1.554524 1.73444,2.525725 0.3509,0.9712 0.45283,2.029664 0.30595,3.051811 -0.2393,1.665342 -1.15155,3.219839 -2.47394,4.259988 -1.32239,1.040149 -3.03834,1.559853 -4.71736,1.452456 -1.67901,-0.107397 -3.30727,-0.835956 -4.52324,-1.998735 -1.21596,-1.162779 -2.01427,-2.748227 -2.24871,-4.414261 -0.25645,-1.822467 0.16352,-3.729942 1.1494,-5.284026 0.98589,-1.554084 2.52774,-2.74442 4.27627,-3.3187 1.74853,-0.574281 3.69075,-0.531117 5.41717,0.10657 1.72641,0.637688 3.22709,1.863454 4.20903,3.420034 0.86199,1.366422 1.32502,2.979383 1.33128,4.59496 0.006,1.615576 -0.44276,3.228902 -1.2723,4.615265 -0.82953,1.386362 -2.03614,2.542776 -3.45059,3.323456 -1.41444,0.78068 -3.03273,1.184943 -4.64828,1.173447 -1.61125,-0.01147 -3.21648,-0.435189 -4.62918,-1.210137 -1.41269,-0.774948 -2.63079,-1.898711 -3.52667,-3.237977 -1.79178,-2.678532 -2.21453,-6.204098 -1.18863,-9.259014 0.63613,-1.894272 1.80222,-3.606855 3.3287,-4.896344 1.52648,-1.289489 3.40866,-2.152606 5.38114,-2.472375 1.97248,-0.319769 4.02974,-0.09582 5.88886,0.63672 1.85911,0.732541 3.51532,1.971245 4.74684,3.544867 1.63638,2.090943 2.5021,4.767743 2.41935,7.421595 -0.0828,2.653853 -1.10969,5.265604 -2.842,7.277786 -1.73231,2.012182 -4.15583,3.413765 -6.76016,3.930773 -2.60432,0.517008 -5.37305,0.14964 -7.76101,-1.011147 -1.94623,-0.946062 -3.63689,-2.409415 -4.85935,-4.195041 -1.22245,-1.785625 -1.97465,-3.888919 -2.17035,-6.044042 -0.1957,-2.155122 0.16463,-4.357367 1.02912,-6.341182 0.86448,-1.983815 2.23058,-3.745554 3.93136,-5.083543 1.7457,-1.373327 3.84081,-2.297867 6.0312,-2.66621 2.19039,-0.368344 4.47155,-0.180187 6.57343,0.537836 4.20378,1.436047 7.57893,5.070307 8.73211,9.360307 0.65522,2.437492 0.62104,5.054916 -0.0875,7.477453 -0.70851,2.422537 -2.08813,4.643644 -3.93858,6.360185 -1.85045,1.716541 -4.16596,2.924828 -6.63012,3.471275 -2.46416,0.546447 -5.07055,0.430839 -7.47983,-0.321519 -3.53978,-1.105383 -6.62134,-3.60787 -8.43469,-6.842626 -1.81335,-3.234755 -2.34051,-7.166939 -1.44892,-10.766514 0.89159,-3.599576 3.19138,-6.829517 6.29795,-8.854629 3.10658,-2.025112 6.98755,-2.82588 10.64298,-2.201588 2.8104,0.479975 5.46686,1.779809 7.61511,3.654305 2.14826,1.874495 3.78832,4.313768 4.77722,6.98787 0.87404,2.363514 1.24488,4.921033 0.99753,7.428814 -0.24735,2.50778 -1.12015,4.961391 -2.57819,7.016696 -2.31051,3.256982 -6.10718,5.413687 -10.08789,5.730439"
       id="path9921"
       inkscape:path-effect="#path-effect9923"
       inkscape:original-d="m 929.64532,74.642765 c 1.05499,0.001 2.10898,0.001 3.16197,0 1.05299,-10e-4 -0.0268,0.564834 -0.0418,0.845751 -0.0149,0.280917 -2.98021,-2.00774 -4.47182,-3.01311 -1.4916,-1.005369 4.2298,1.445906 6.3432,2.167359 2.1134,0.721452 -3.32672,3.059584 -4.99159,4.587876 -1.66486,1.528293 -0.59495,-6.396716 -0.89393,-9.596574 -0.29898,-3.199858 5.23113,4.371001 7.8452,6.555001 2.61406,2.184 -9.30783,-0.466035 -13.96325,-0.700552 -4.65541,-0.234517 10.03558,-3.383081 15.05187,-5.076122 5.01629,-1.69304 -5.35892,9.139085 -8.03989,13.707128 -2.68096,4.568042 -6.22865,-9.137085 -9.34448,-13.707128 -3.11583,-4.570042 12.89802,-2.123755 19.34554,-3.187132 6.44751,-1.063378 -9.96155,11.747004 -14.94382,17.619007 -4.98227,5.872002 -1.37848,-14.441539 -2.06922,-21.663808 -0.69074,-7.222269 14.22549,4.822289 21.33674,7.231933 7.11124,2.409644 -12.08967,11.325929 -18.13601,16.987394 -6.04633,5.661464 4.70588,-19.109238 7.05732,-28.665357 2.35143,-9.556119 8.26255,7.095783 12.39233,10.642175 4.12978,3.546391 -1.05277,9.63134 -1.58066,14.44551 -0.52788,4.81417 -6.72426,3.821293 -10.08789,5.730439" />
  </g>
</svg>
