<?xml version="1.0" encoding="UTF-8" standalone="no"?>
<!-- Created with Inkscape (http://www.inkscape.org/) -->

<svg
   version="1.1"
   id="svg162"
   width="391.44638"
   height="54.394493"
   viewBox="0 0 391.44638 54.394493"
   sodipodi:docname="board.svg"
   inkscape:version="1.2.2 (b0a8486541, 2022-12-01)"
   xmlns:inkscape="http://www.inkscape.org/namespaces/inkscape"
   xmlns:sodipodi="http://sodipodi.sourceforge.net/DTD/sodipodi-0.dtd"
   xmlns:xlink="http://www.w3.org/1999/xlink"
   xmlns="http://www.w3.org/2000/svg"
   xmlns:svg="http://www.w3.org/2000/svg">
  <defs
     id="defs166">
    <inkscape:path-effect
       effect="spiro"
       id="path-effect1384"
       is_visible="true"
       lpeversion="1" />
    <inkscape:path-effect
       effect="spiro"
       id="path-effect1380"
       is_visible="true"
       lpeversion="1" />
    <inkscape:path-effect
       effect="spiro"
       id="path-effect1376"
       is_visible="true"
       lpeversion="1" />
    <inkscape:path-effect
       effect="spiro"
       id="path-effect1372"
       is_visible="true"
       lpeversion="1" />
    <inkscape:path-effect
       effect="spiro"
       id="path-effect814"
       is_visible="true"
       lpeversion="1" />
    <linearGradient
       inkscape:collect="always"
       id="linearGradient561">
      <stop
         style="stop-color:#241809;stop-opacity:0.85469544;"
         offset="0"
         id="stop551" />
      <stop
         style="stop-color:#0c0804;stop-opacity:0.95686275;"
         offset="0.23834516"
         id="stop553" />
      <stop
         style="stop-color:#0c0804;stop-opacity:0.95490718;"
         offset="0.73970371"
         id="stop555" />
      <stop
         style="stop-color:#241809;stop-opacity:0.85490197;"
         offset="1"
         id="stop557" />
    </linearGradient>
    <inkscape:path-effect
       effect="spiro"
       id="path-effect9915"
       is_visible="true"
       lpeversion="1" />
    <inkscape:path-effect
       effect="spiro"
       id="path-effect9911"
       is_visible="true"
       lpeversion="1" />
    <inkscape:path-effect
       effect="spiro"
       id="path-effect9907"
       is_visible="true"
       lpeversion="1" />
    <inkscape:path-effect
       effect="spiro"
       id="path-effect9721"
       is_visible="true"
       lpeversion="1" />
    <inkscape:path-effect
       effect="spiro"
       id="path-effect9717"
       is_visible="true"
       lpeversion="1" />
    <inkscape:path-effect
       effect="spiro"
       id="path-effect9713"
       is_visible="true"
       lpeversion="1" />
    <inkscape:path-effect
       effect="spiro"
       id="path-effect9709"
       is_visible="true"
       lpeversion="1" />
    <inkscape:path-effect
       effect="spiro"
       id="path-effect9705"
       is_visible="true"
       lpeversion="1" />
    <inkscape:path-effect
       effect="spiro"
       id="path-effect9701"
       is_visible="true"
       lpeversion="1" />
    <inkscape:path-effect
       effect="spiro"
       id="path-effect9697"
       is_visible="true"
       lpeversion="1" />
    <inkscape:path-effect
       effect="spiro"
       id="path-effect9692"
       is_visible="true"
       lpeversion="1" />
    <inkscape:path-effect
       effect="spiro"
       id="path-effect9674"
       is_visible="true"
       lpeversion="1" />
    <inkscape:path-effect
       effect="spiro"
       id="path-effect9670"
       is_visible="true"
       lpeversion="1" />
    <inkscape:path-effect
       effect="spiro"
       id="path-effect9666"
       is_visible="true"
       lpeversion="1" />
    <inkscape:path-effect
       effect="spiro"
       id="path-effect9662"
       is_visible="true"
       lpeversion="1" />
    <inkscape:path-effect
       effect="spiro"
       id="path-effect9654"
       is_visible="true"
       lpeversion="1" />
    <linearGradient
       inkscape:collect="always"
       id="linearGradient931">
      <stop
         style="stop-color:#f9f7ec;stop-opacity:0.50588238;"
         offset="0"
         id="stop927" />
      <stop
         style="stop-color:#241809;stop-opacity:0.85469544;"
         offset="0.1797314"
         id="stop935" />
      <stop
         style="stop-color:#0c0804;stop-opacity:0.95686275;"
         offset="0.33316544"
         id="stop939" />
      <stop
         style="stop-color:#0c0804;stop-opacity:0.95490718;"
         offset="0.65591359"
         id="stop941" />
      <stop
         style="stop-color:#241809;stop-opacity:0.85490197;"
         offset="0.82347864"
         id="stop937" />
      <stop
         style="stop-color:#f9f7ec;stop-opacity:0.50476986;"
         offset="1"
         id="stop929" />
    </linearGradient>
    <linearGradient
       inkscape:collect="always"
       xlink:href="#linearGradient931"
       id="linearGradient933"
       x1="697.3786"
       y1="43.78204"
       x2="698.48364"
       y2="43.78204"
       gradientUnits="userSpaceOnUse"
       gradientTransform="matrix(2.8909707,0,0,0.2427124,-1350.1791,25.948237)" />
    <linearGradient
       inkscape:collect="always"
       xlink:href="#linearGradient931"
       id="linearGradient1016"
       gradientUnits="userSpaceOnUse"
       gradientTransform="matrix(2.8909707,0,0,0.2427124,-1350.3191,25.948237)"
       x1="697.3786"
       y1="43.78204"
       x2="698.48364"
       y2="43.78204" />
    <linearGradient
       inkscape:collect="always"
       xlink:href="#linearGradient931"
       id="linearGradient1090"
       gradientUnits="userSpaceOnUse"
       gradientTransform="matrix(2.8909707,0,0,0.2427124,-1439.6556,25.948237)"
       x1="697.3786"
       y1="43.78204"
       x2="698.48364"
       y2="43.78204" />
    <linearGradient
       inkscape:collect="always"
       xlink:href="#linearGradient931"
       id="linearGradient1164"
       gradientUnits="userSpaceOnUse"
       gradientTransform="matrix(2.8909707,0,0,0.2427124,-1172.1752,25.948237)"
       x1="697.3786"
       y1="43.78204"
       x2="698.48364"
       y2="43.78204" />
    <linearGradient
       inkscape:collect="always"
       xlink:href="#linearGradient931"
       id="linearGradient1238"
       gradientUnits="userSpaceOnUse"
       gradientTransform="matrix(0.47959578,0,0,0.86827021,-287.15346,-918.25923)"
       x1="697.3786"
       y1="43.78204"
       x2="698.48364"
       y2="43.78204" />
    <linearGradient
       inkscape:collect="always"
       xlink:href="#linearGradient931"
       id="linearGradient1312"
       gradientUnits="userSpaceOnUse"
       gradientTransform="matrix(0.47959578,0,0,0.86827021,-274.72547,-918.25923)"
       x1="697.3786"
       y1="43.78204"
       x2="698.48364"
       y2="43.78204" />
    <linearGradient
       inkscape:collect="always"
       xlink:href="#linearGradient931"
       id="linearGradient1386"
       gradientUnits="userSpaceOnUse"
       gradientTransform="matrix(0.82631361,0.7086807,-1.1328702,0.15412283,-22.863985,-445.5763)"
       x1="697.3786"
       y1="43.78204"
       x2="698.48364"
       y2="43.78204" />
    <linearGradient
       inkscape:collect="always"
       xlink:href="#linearGradient561"
       id="linearGradient2292"
       gradientUnits="userSpaceOnUse"
       gradientTransform="matrix(0.82631361,-0.7086807,-1.1328702,-0.15412282,-22.863993,574.92641)"
       x1="697.57721"
       y1="43.78204"
       x2="698.28857"
       y2="43.78204" />
    <inkscape:path-effect
       effect="spiro"
       id="path-effect9705-0"
       is_visible="true"
       lpeversion="1" />
    <inkscape:path-effect
       effect="spiro"
       id="path-effect9709-6"
       is_visible="true"
       lpeversion="1" />
  </defs>
  <sodipodi:namedview
     id="namedview164"
     pagecolor="#ffffff"
     bordercolor="#666666"
     borderopacity="1.0"
     inkscape:showpageshadow="2"
     inkscape:pageopacity="0.0"
     inkscape:pagecheckerboard="false"
     inkscape:deskcolor="#d1d1d1"
     showgrid="false"
     inkscape:zoom="8.0000004"
     inkscape:cx="228.31249"
     inkscape:cy="44.062498"
     inkscape:window-width="1920"
     inkscape:window-height="996"
     inkscape:window-x="0"
     inkscape:window-y="28"
     inkscape:window-maximized="1"
     inkscape:current-layer="g168"
     inkscape:lockguides="false"
     showguides="true">
    <sodipodi:guide
       position="4.9062664,15.846617"
       orientation="0,-1"
       id="guide479"
       inkscape:locked="false" />
  </sodipodi:namedview>
  <g
     inkscape:groupmode="layer"
     inkscape:label="Image"
     id="g168"
     style="display:inline;opacity:1;fill:#9b5a44"
     transform="translate(-496.60069,-33.379779)">
    <rect
       style="display:inline;fill:#e9cea8;stroke:#000000;stroke-width:2.81431;stroke-linecap:round;stroke-linejoin:round;stroke-dasharray:none;paint-order:stroke markers fill"
       id="rect328"
       width="388.63208"
       height="51.580185"
       x="498.00784"
       y="34.786934"
       ry="4.9274096" />
    <rect
       style="display:inline;opacity:0.727883;fill:url(#linearGradient1016);fill-opacity:1;stroke:none;stroke-width:4.63813;stroke-linecap:round;stroke-linejoin:round;paint-order:stroke fill markers"
       id="rect348-6"
       width="3.1946232"
       height="3.5754888"
       x="665.78204"
       y="34.786934"
       ry="0" />
    <rect
       style="opacity:0.727883;fill:url(#linearGradient933);fill-opacity:1;stroke:none;stroke-width:4.63813;stroke-linecap:round;stroke-linejoin:round;paint-order:stroke fill markers"
       id="rect348"
       width="3.1946232"
       height="3.5754888"
       x="665.92206"
       y="34.786934"
       ry="0" />
    <rect
       style="display:inline;opacity:0.727883;fill:url(#linearGradient1164);fill-opacity:1;stroke:none;stroke-width:4.63813;stroke-linecap:round;stroke-linejoin:round;paint-order:stroke fill markers"
       id="rect348-1"
       width="3.1946232"
       height="3.5754888"
       x="843.92603"
       y="34.786934"
       ry="0" />
    <rect
       style="display:inline;opacity:0.727883;fill:url(#linearGradient1238);fill-opacity:1;stroke:none;stroke-width:3.57305;stroke-linecap:round;stroke-linejoin:round;paint-order:stroke fill markers"
       id="rect348-1-3"
       width="0.52996993"
       height="12.790818"
       x="47.306381"
       y="-886.63995"
       ry="0"
       transform="rotate(90)" />
    <rect
       style="display:inline;opacity:0.727883;fill:url(#linearGradient1312);fill-opacity:1;stroke:none;stroke-width:3.57305;stroke-linecap:round;stroke-linejoin:round;paint-order:stroke fill markers"
       id="rect348-1-3-9"
       width="0.52996993"
       height="12.790818"
       x="59.734367"
       y="-886.63995"
       ry="0"
       transform="rotate(90)" />
    <rect
       style="display:inline;opacity:0.727883;fill:url(#linearGradient1090);fill-opacity:1;stroke:none;stroke-width:4.63813;stroke-linecap:round;stroke-linejoin:round;paint-order:stroke fill markers"
       id="rect348-9"
       width="3.1946232"
       height="3.5754888"
       x="576.44543"
       y="34.786934"
       ry="0" />
    <rect
       style="display:inline;fill:#9b5a44;stroke:#000000;stroke-width:2.53769;stroke-linecap:round;stroke-linejoin:round;paint-order:stroke fill markers"
       id="rect328-3"
       width="378.42194"
       height="43.072613"
       x="503.11292"
       y="39.040718"
       ry="2.6615627" />
    <path
       style="fill:none;stroke:#000000;stroke-width:0.97228;stroke-linecap:butt;stroke-linejoin:miter;stroke-dasharray:none;stroke-opacity:0.619737"
       d="m 681.67934,82.788456 c 0,0 -20.55604,2.164619 -21.87416,4.170672"
       id="path2349"
       sodipodi:nodetypes="cc" />
    <path
       id="rect1396"
       style="display:inline;opacity:0.727883;fill:url(#linearGradient1386);stroke-width:5.34026;stroke-linecap:round;stroke-linejoin:round;paint-order:stroke fill markers"
       d="m 501.84899,56.561674 -3.84113,0.522572 v -0.907342 l 3.84745,-0.523431 z"
       sodipodi:nodetypes="ccccc" />
    <path
       id="rect1396-5"
       style="display:inline;opacity:0.727883;fill:url(#linearGradient2292);stroke-width:5.34025;stroke-linecap:round;stroke-linejoin:round;paint-order:stroke fill markers"
       d="m 501.846,72.788033 -3.83814,-0.522165 v 0.907343 l 3.84585,0.523214 -0.008,-0.908392 z"
       sodipodi:nodetypes="cccccc" />
    <path
       style="display:inline;opacity:1;fill:none;stroke:#000000;stroke-width:0.441946px;stroke-linecap:butt;stroke-linejoin:miter;stroke-opacity:1"
       d="m 502.75461,50.32643 c 13.03358,2.156056 26.26925,3.088871 39.4764,2.782193 4.68855,-0.108871 9.37591,-0.373511 14.06501,-0.291726 4.73307,0.08255 9.45324,0.517839 14.18432,0.677757 5.68655,0.192214 11.37795,-0.01366 17.0655,-0.173559 29.03481,-0.816276 58.091,-0.434168 87.12738,0.324242 9.06415,0.236749 18.13632,0.510117 27.19579,0.134776 7.02216,-0.290934 14.03158,-0.97145 21.05975,-0.957359 5.96057,0.01195 11.91001,0.523615 17.86992,0.612732 4.66344,0.06973 9.32628,-0.119322 13.98808,-0.261523 14.76517,-0.45039 29.54467,-0.430904 44.3086,0.05842"
       id="path9652"
       inkscape:path-effect="#path-effect9654"
       inkscape:original-d="m 502.75461,50.32643 c 9.72863,0.240871 29.74938,2.541805 39.4764,2.782193 9.72702,0.240384 9.37748,-0.194243 14.06501,-0.291726 4.68754,-0.09749 9.45701,0.452081 14.18432,0.677757 4.7273,0.225677 11.37781,-0.115463 17.0655,-0.173559 5.6877,-0.0581 58.08573,0.216405 87.12738,0.324242 29.04166,0.10784 18.13133,0.09009 27.19579,0.134776 9.06445,0.04468 14.04064,-0.637996 21.05975,-0.957359 7.01913,-0.319364 11.91409,0.40873 17.86992,0.612732 5.95583,0.204002 9.32619,-0.174107 13.98808,-0.261523 4.6619,-0.08742 30.11097,0.191401 44.3086,0.05842"
       sodipodi:nodetypes="csssssssssc" />
    <path
       style="display:inline;opacity:1;fill:none;stroke:#000000;stroke-width:0.441946px;stroke-linecap:butt;stroke-linejoin:miter;stroke-opacity:1"
       d="m 502.62563,67.81386 c 7.63414,1.063531 15.33188,1.670313 23.03836,1.816021 11.76504,0.222444 23.51989,-0.62838 35.27642,-1.128147 24.13397,-1.025929 48.305,-0.572656 72.45239,0.06342 16.51111,0.434925 33.02987,0.955264 49.54159,0.544105 24.32437,-0.605702 48.74677,-3.2278 72.91509,-0.411029 3.12502,0.364215 6.24686,0.819522 9.39216,0.893465 3.14531,0.07394 6.34122,-0.245911 9.27458,-1.383367 4.68939,-1.818386 8.49909,-5.777602 10.13569,-10.53349"
       id="path9660"
       inkscape:path-effect="#path-effect9662"
       inkscape:original-d="m 502.62563,67.81386 c 4.20628,0.02704 18.83368,1.789471 23.03836,1.816021 4.20468,0.02655 23.51842,-0.751856 35.27642,-1.128147 11.75799,-0.376289 48.3024,0.04252 72.45239,0.06342 24.14999,0.02089 33.02854,0.362978 49.54159,0.544105 16.51307,0.181126 48.61087,-0.273778 72.91509,-0.411029 24.30423,-0.137251 12.4453,-0.326358 18.66674,-0.489902 6.22144,-0.163545 4.56121,-8.839212 10.13569,-10.53349"
       sodipodi:nodetypes="cssssssc" />
    <path
       style="display:inline;opacity:1;fill:none;stroke:#000000;stroke-width:0.442;stroke-linecap:butt;stroke-linejoin:miter;stroke-opacity:1;stroke-dasharray:none"
       d="m 761.27505,55.334619 c 12.13522,-1.123037 24.31165,-1.800808 36.49654,-2.031492 11.41196,-0.216051 22.82761,-0.04007 34.24129,-0.126234 16.65884,-0.125768 33.31346,-0.810218 49.92644,-2.051812"
       id="path9664"
       inkscape:path-effect="#path-effect9666"
       inkscape:original-d="m 761.27505,55.334619 c 33.31138,-423.876169 28.18246,-1.770802 36.49654,-2.031492 8.31409,-0.26069 22.82833,-0.08392 34.24129,-0.126234 11.41294,-0.04232 36.73146,-1.833642 49.92644,-2.051812"
       sodipodi:nodetypes="cssc" />
    <path
       style="display:inline;opacity:1;fill:none;stroke:#000000;stroke-width:0.441946px;stroke-linecap:butt;stroke-linejoin:miter;stroke-opacity:1"
       d="m 502.65515,44.133329 c 19.28257,-1.056323 38.61393,-1.221529 57.91173,-0.494914 17.23696,0.649019 34.44521,2.008946 51.6899,2.402104 10.19741,0.232488 20.40066,0.126719 30.5972,0.394675 33.17348,0.871768 66.17239,5.695513 99.35621,5.96714 7.62033,0.06238 15.24052,-0.115537 22.86109,-0.133014 11.38218,-0.0261 22.76518,0.305832 34.1265,0.99515"
       id="path9668"
       inkscape:path-effect="#path-effect9670"
       inkscape:original-d="m 502.65515,44.133329 c 15.84058,0.03338 42.07276,-0.527814 57.91173,-0.494914 15.83898,0.03289 34.46075,1.601645 51.6899,2.402104 17.22917,0.800458 20.39894,0.26336 30.5972,0.394675 10.19825,0.131316 66.23827,3.978335 99.35621,5.96714 33.11793,1.988802 15.24153,-0.08843 22.86109,-0.133014 7.61957,-0.04458 23.35705,0.826584 34.1265,0.99515"
       sodipodi:nodetypes="csssssc" />
    <path
       style="display:inline;opacity:1;fill:none;stroke:#000000;stroke-width:0.441946px;stroke-linecap:butt;stroke-linejoin:miter;stroke-opacity:1"
       d="m 502.77397,47.152636 c 18.2303,-1.589626 36.55282,-2.120945 54.8446,-1.590391 17.15433,0.497563 34.2718,1.927637 51.42671,2.404943 12.76966,0.355294 25.54967,0.182354 38.31928,0.539635 21.30692,0.596147 42.54867,2.667291 63.84981,3.442845 18.92141,0.68891 37.86357,0.354692 56.79649,0.551878 10.35963,0.107895 20.7176,0.374931 31.06903,0.800982"
       id="path9690"
       inkscape:path-effect="#path-effect9692"
       inkscape:original-d="m 502.77397,47.152636 c 8.41424,-0.270865 36.5561,-1.752618 54.8446,-1.590391 17.1603,0.152219 34.16672,1.881354 51.42671,2.404943 12.72282,0.385951 25.57469,0.225736 38.31928,0.539635 10.76413,0.265121 52.44725,2.870173 63.84981,3.442845 29.58431,1.485818 -1329.02711,12.610863 56.79649,0.551878 264.61664,-2.302607 -3.79906,-0.06815 31.06903,0.800982"
       sodipodi:nodetypes="caasssc" />
    <path
       style="fill:none;stroke:#000000;stroke-width:0.441946px;stroke-linecap:butt;stroke-linejoin:miter;stroke-opacity:1"
       d="m 511.64548,82.533166 c 23.63634,-2.843626 47.39252,-4.691006 71.18431,-5.535591 39.68943,-1.408935 79.42268,-0.02763 119.13495,-0.442196 15.28803,-0.159594 30.61244,-0.584042 45.83696,0.817168 8.08412,0.744033 16.17503,2.003239 24.27887,1.51917 8.10384,-0.48407 16.41631,-2.916653 22.25542,-8.55681 3.04588,-2.942098 5.31467,-6.681657 6.51722,-10.742099"
       id="path9695"
       inkscape:path-effect="#path-effect9697"
       inkscape:original-d="m 511.64548,82.533166 c 23.26156,-1.70501 47.92436,-3.830094 71.18431,-5.535591 23.25994,-1.705494 79.42411,-0.294553 119.13495,-0.442196 39.71086,-0.147638 12.11601,1.775712 45.83696,0.817168 33.72095,-0.958543 38.72778,-4.620358 46.53429,-7.03764 7.80651,-2.417284 6.27964,-8.510196 6.51722,-10.742099"
       sodipodi:nodetypes="cssssc" />
    <path
       style="fill:none;stroke:#000000;stroke-width:0.441946px;stroke-linecap:butt;stroke-linejoin:miter;stroke-opacity:1"
       d="m 502.77432,73.706194 c 34.41623,-1.2185 68.84322,-2.132911 103.27561,-2.74309 48.28902,-0.855733 96.66067,-1.110634 144.80533,2.717369 6.16406,0.490107 12.3727,1.046577 18.51612,0.343495 6.14341,-0.703083 12.30447,-2.773267 16.8825,-6.929887 2.65083,-2.406826 4.70397,-5.467083 5.92582,-8.832618"
       id="path9699"
       inkscape:path-effect="#path-effect9701"
       inkscape:original-d="m 502.77432,73.706194 c 31.30596,-1.377083 71.97125,-1.365522 103.27561,-2.74309 31.30436,-1.377567 96.5377,1.811821 144.80533,2.717369 48.26764,0.905548 45.54887,-7.557989 35.39862,-6.586392 -14.10139,1.349806 7.16977,-6.208208 5.92582,-8.832618"
       sodipodi:nodetypes="csssc" />
    <path
       style="fill:none;stroke:#000000;stroke-width:0.441946px;stroke-linecap:butt;stroke-linejoin:miter;stroke-opacity:1"
       d="m 502.70863,62.256405 c 20.46504,-2.853915 41.14243,-4.183848 61.80444,-3.975154 32.04713,0.323688 64.04082,4.340631 96.06581,3.106228 17.45728,-0.672891 34.81317,-2.903258 52.22723,-4.303232 16.12412,-1.296271 32.30545,-1.880582 48.48107,-1.750661"
       id="path9703"
       inkscape:path-effect="#path-effect9705"
       inkscape:original-d="m 502.70863,62.256405 c 17.15598,-0.765014 44.65007,-3.209654 61.80444,-3.975154 17.15439,-0.7655 64.04468,2.071062 96.06581,3.106228 32.02112,1.035167 34.81896,-2.868579 52.22723,-4.303232 17.40827,-1.434653 32.32152,-1.166864 48.48107,-1.750661"
       sodipodi:nodetypes="csssc" />
    <path
       style="display:inline;fill:none;stroke:#000000;stroke-width:0.441946px;stroke-linecap:butt;stroke-linejoin:miter;stroke-opacity:1"
       d="m 502.79829,64.610918 c 19.52887,-3.021281 39.31584,-4.372439 59.07414,-4.033892 32.92272,0.564112 65.76175,5.80551 98.64407,4.080031 19.2667,-1.011008 38.31985,-4.405115 57.49248,-6.55879 13.46092,-1.512075 26.99047,-2.413087 40.53303,-2.699331"
       id="path9703-3"
       inkscape:path-effect="#path-effect9705-0"
       inkscape:original-d="m 502.79829,64.610918 c 17.15598,-0.765015 41.91976,-3.268392 59.07414,-4.033892 17.15438,-0.7655 66.62294,3.044865 98.64407,4.080031 32.02112,1.035166 40.08421,-5.124136 57.49248,-6.55879 17.40827,-1.434653 24.37349,-2.115534 40.53303,-2.699331"
       sodipodi:nodetypes="csssc" />
    <path
       style="fill:none;stroke:#000000;stroke-width:0.441946px;stroke-linecap:butt;stroke-linejoin:miter;stroke-opacity:1"
       d="m 882.18077,45.53312 c -11.96187,3.236225 -24.27842,5.159692 -36.65744,5.724767 -12.12341,0.553407 -24.26325,-0.191876 -36.39718,-0.417659 -21.58999,-0.401737 -43.19721,0.841647 -64.77474,0.0054 C 724.00524,50.057103 703.77345,47.422863 683.4464,46.239988 658.88933,44.81096 634.25723,45.50341 609.67453,44.618914 591.15297,43.952501 572.67172,42.39132 554.14886,41.7622 537.01984,41.180421 519.86374,41.396632 502.75483,42.409897"
       id="path9707"
       inkscape:path-effect="#path-effect9709"
       inkscape:original-d="m 882.18077,45.53312 c -8.69149,0.618996 -27.96433,5.106256 -36.65744,5.724767 -8.6931,0.618509 -24.26398,-0.278197 -36.39718,-0.417659 -12.13319,-0.139462 -43.18236,0.0039 -64.77474,0.0054 -21.59239,0.0015 -40.60254,-3.070184 -60.90501,-4.60564 -20.30248,-1.535455 -49.18045,-1.080473 -73.77187,-1.621074 -24.59143,-0.5406 -37.01631,-1.904234 -55.52567,-2.856714 -18.50937,-0.952482 -37.69279,0.647939 -51.39403,0.647697"
       sodipodi:nodetypes="cssssssc" />
    <path
       style="display:inline;fill:none;stroke:#000000;stroke-width:0.441946px;stroke-linecap:butt;stroke-linejoin:miter;stroke-opacity:1"
       d="m 881.72866,42.372069 c -12.51308,4.430315 -25.75305,6.800077 -39.02598,6.98508 -11.20791,0.15622 -22.37638,-1.231058 -33.5765,-1.676993 -22.17895,-0.883058 -44.36718,1.92754 -66.55639,1.35755 -20.52378,-0.527209 -40.85796,-3.940168 -61.3268,-5.530807 -24.52791,-1.906071 -49.17377,-1.190736 -73.77187,-1.621074 -19.30204,-0.337685 -38.59171,-1.381854 -57.81741,-3.129716"
       id="path9707-1"
       inkscape:path-effect="#path-effect9709-6"
       inkscape:original-d="m 881.72866,42.372069 c -8.69155,0.618994 -30.33289,6.36657 -39.02598,6.98508 -8.69308,0.618509 -21.44331,-1.537531 -33.5765,-1.676993 -12.13319,-0.139462 -44.96402,1.355997 -66.55639,1.35755 -21.59238,0.0015 -41.02433,-3.99535 -61.3268,-5.530807 -20.30247,-1.535456 -49.18044,-1.080474 -73.77187,-1.621074 -24.59143,-0.540601 -39.30805,-2.177236 -57.81741,-3.129716"
       sodipodi:nodetypes="csscssc" />
    <path
       style="fill:none;stroke:#000000;stroke-width:0.441946px;stroke-linecap:butt;stroke-linejoin:miter;stroke-opacity:1"
       d="m 527.70536,82.408717 c 31.90714,-2.296316 63.86035,-3.952368 95.83392,-4.966825 34.87554,-1.10653 69.77529,-1.449695 104.66584,-1.029166"
       id="path9711"
       inkscape:path-effect="#path-effect9713"
       inkscape:original-d="m 527.70536,82.408717 c 30.99135,-1.560813 64.84418,-3.405527 95.83392,-4.966825 30.98973,-1.561298 69.61893,-0.937205 104.66584,-1.029166"
       sodipodi:nodetypes="csc" />
    <path
       style="fill:none;stroke:#000000;stroke-width:0.441946px;stroke-linecap:butt;stroke-linejoin:miter;stroke-opacity:1"
       d="m 774.19927,82.484208 c 7.72377,-0.270686 15.35725,-2.760335 21.75539,-7.095495 3.47271,-2.352981 6.61199,-5.271393 8.85581,-8.8156 1.64774,-2.602659 2.79445,-5.521259 3.35906,-8.549474"
       id="path9715"
       inkscape:path-effect="#path-effect9717"
       inkscape:original-d="m 774.19927,82.484208 c 13.30321,-2.343271 8.45378,-4.751735 21.75539,-7.095495 13.30158,-2.343756 3.4252,-3.644007 8.85581,-8.8156 5.4306,-5.171595 5.61548,-6.910977 3.35906,-8.549474"
       sodipodi:nodetypes="cssc" />
    <path
       style="fill:none;stroke:#000000;stroke-width:0.441946px;stroke-linecap:butt;stroke-linejoin:miter;stroke-opacity:1"
       d="m 793.20608,82.705631 c 5.90654,-1.854805 11.2612,-5.431436 15.23667,-10.177292 3.80995,-4.548259 6.34389,-10.154129 7.24088,-16.01909"
       id="path9719"
       inkscape:path-effect="#path-effect9721"
       inkscape:original-d="m 793.20608,82.705631 c 8.30717,-2.893316 6.93111,-7.28349 15.23667,-10.177292 8.30557,-2.893801 8.12689,-9.152417 7.24088,-16.01909"
       sodipodi:nodetypes="csc" />
    <path
       style="fill:none;stroke:#000000;stroke-width:0.442;stroke-linecap:butt;stroke-linejoin:miter;stroke-opacity:1;stroke-dasharray:none"
       d="m 742.05624,46.125139 c -6.0311,-0.433368 -12.04639,-1.086606 -18.02992,-1.95798 -2.08133,-0.303101 -4.15884,-0.632587 -6.24255,-0.918804 -11.6153,-1.595468 -23.37012,-1.84007 -35.09381,-1.965439 -27.55656,-0.294679 -55.12804,0.05579 -82.6628,-1.079107 -7.04755,-0.290479 -14.09108,-0.678225 -21.12793,-1.16309"
       id="path9909"
       inkscape:path-effect="#path-effect9911"
       inkscape:original-d="m 742.05624,46.125139 c -6.00917,-0.652418 -12.01914,-1.305077 -18.02992,-1.95798 -6.01078,-0.652903 -4.1609,-0.612293 -6.24255,-0.918804 -2.08166,-0.306511 -23.39507,-1.310051 -35.09381,-1.965439 -11.69874,-0.65539 -55.10773,-0.719162 -82.6628,-1.079107 -27.55507,-0.359945 -14.08449,-0.77515 -21.12793,-1.16309" />
    <path
       style="fill:none;stroke:#000000;stroke-width:0.441946px;stroke-linecap:butt;stroke-linejoin:miter;stroke-opacity:1"
       d="m 878.43653,38.593634 c -7.87095,4.447643 -16.57312,7.41856 -25.52066,8.712749 -16.32354,2.361067 -32.87637,-0.838156 -49.35904,-1.433326 -18.55982,-0.670173 -37.10148,1.971186 -55.6714,1.69831 C 733.75886,47.363784 719.7199,45.47204 705.66205,44.064959 683.80249,41.876988 661.82604,40.857356 639.8578,41.011866"
       id="path9913"
       inkscape:path-effect="#path-effect9915"
       inkscape:original-d="m 878.43653,38.593634 c -5.93759,2.253906 -19.58147,6.459328 -25.52066,8.712749 -5.93919,2.25342 -32.90522,-0.955309 -49.35904,-1.433326 -16.45383,-0.478019 -37.11347,1.132449 -55.6714,1.69831 -18.55794,0.565862 -28.14812,-2.337363 -42.22338,-3.506408 -14.07526,-1.169046 -43.86869,-2.035153 -65.80425,-3.053093"
       sodipodi:nodetypes="cssssc" />
    <path
       style="fill:none;fill-rule:evenodd;stroke:#000000;stroke-width:0.442;stroke-linecap:butt;stroke-linejoin:miter;stroke-dasharray:none;stroke-opacity:1"
       d="m 742.02951,46.122392 c 1.38622,0.113424 2.77564,0.187856 4.16605,0.223179 1.0133,0.02574 2.0384,0.02954 3.02584,-0.199408 0.98744,-0.228951 1.94623,-0.713048 2.57188,-1.510552 0.41781,-0.532569 0.67249,-1.194385 0.70286,-1.870604 0.0304,-0.676218 -0.16655,-1.363239 -0.56399,-1.911176 -0.39744,-0.547937 -0.99502,-0.95074 -1.65579,-1.09767 -0.66076,-0.146931 -1.37881,-0.03288 -1.95314,0.325367 -0.66159,0.412677 -1.11312,1.149554 -1.16769,1.927389 -0.0546,0.777836 0.29409,1.575795 0.90977,2.054274 0.51132,0.397372 1.19537,0.568281 1.83116,0.445295 0.63578,-0.122985 1.21068,-0.541517 1.51168,-1.114883 0.26309,-0.501153 0.31244,-1.11375 0.1166,-1.644807 -0.19583,-0.531057 -0.63823,-0.969057 -1.17672,-1.143418 -0.47986,-0.155378 -1.0261,-0.09742 -1.45875,0.161847 -0.43266,0.259265 -0.74257,0.717101 -0.81495,1.216268 -0.0597,0.411569 0.0415,0.845258 0.28146,1.184911 0.23997,0.339653 0.61703,0.580622 1.02698,0.650553 0.29661,0.0506 0.60852,0.01263 0.88215,-0.112547 0.27363,-0.125173 0.50736,-0.337714 0.65326,-0.600871 0.1459,-0.263157 0.20231,-0.575826 0.15236,-0.872547 -0.05,-0.296722 -0.20692,-0.575141 -0.43832,-0.767474 -0.18664,-0.155129 -0.42014,-0.253605 -0.66173,-0.276804 -0.24158,-0.0232 -0.4902,0.02931 -0.70069,0.150098 -0.2105,0.120792 -0.38165,0.309567 -0.47931,0.531742 -0.0977,0.222175 -0.12096,0.476645 -0.0631,0.712352 0.0442,0.180147 0.13526,0.348995 0.26387,0.482654 0.12861,0.133659 0.29467,0.231494 0.47471,0.276112 0.18004,0.04462 0.37351,0.03544 0.54744,-0.02901 0.17393,-0.06445 0.32734,-0.184331 0.42931,-0.339275 0.0876,-0.133128 0.13691,-0.291705 0.13686,-0.451075 -6e-5,-0.159369 -0.05,-0.318857 -0.1435,-0.447891 -0.0935,-0.129033 -0.23063,-0.22655 -0.38413,-0.26939 -0.15351,-0.04284 -0.32246,-0.03007 -0.46639,0.03836 -0.13337,0.0634 -0.24378,0.173885 -0.30708,0.307301 -0.0633,0.133415 -0.0791,0.288811 -0.0438,0.432219"
       id="path812"
       inkscape:path-effect="#path-effect814"
       inkscape:original-d="m 742.02951,46.122392 c 2.84713,-0.325663 1.32092,0.550842 4.16605,0.223179 2.84513,-0.327663 5.19026,-1.540029 5.59772,-1.70996 0.40746,-0.16993 -2.31237,-3.035055 -3.47006,-4.554083 -1.15769,-1.519027 -0.17095,2.655442 -0.25792,3.981663 -0.087,1.32622 2.22956,-0.445392 3.34284,-0.669588 1.11327,-0.224196 -0.70575,-1.857817 -1.06012,-2.788225 -0.35437,-0.930408 -1.5148,0.919743 -2.2737,1.378115 -0.7589,0.458371 0.87329,1.224642 1.30844,1.835464 0.43514,0.610821 0.83397,-1.56796 1.24945,-2.353439 0.41549,-0.78548 -1.26892,0.745925 -1.90488,1.117388 -0.63596,0.371463 1.14455,0.26132 1.71533,0.390479 0.57077,0.12916 -0.57044,-0.752332 -0.85716,-1.129999 -0.28671,-0.377666 -0.23294,0.494014 -0.35091,0.73952"
       sodipodi:nodetypes="cssssssssssssc" />
    <path
       style="fill:none;fill-rule:evenodd;stroke:#000000;stroke-width:0.442;stroke-linecap:butt;stroke-linejoin:miter;stroke-opacity:1;stroke-dasharray:none"
       d="m 850.23857,66.842552 c 0.37671,0.04943 0.76765,-0.01534 1.10829,-0.183635 0.34064,-0.168291 0.62963,-0.43943 0.81927,-0.768663 0.18963,-0.329233 0.27917,-0.715257 0.25382,-1.094353 -0.0254,-0.379096 -0.16547,-0.749765 -0.39725,-1.050822 -0.24387,-0.316768 -0.58749,-0.554417 -0.96808,-0.676769 -0.38059,-0.122352 -0.79642,-0.129769 -1.18279,-0.02711 -0.38636,0.102655 -0.74229,0.314319 -1.02152,0.600408 -0.27923,0.286089 -0.4816,0.645449 -0.58759,1.030913 -0.11691,0.425186 -0.11662,0.880733 -0.009,1.308241 0.10812,0.427508 0.32294,0.826449 0.6131,1.158503 0.58032,0.664107 1.45413,1.04284 2.33503,1.085513 0.88695,0.04297 1.79257,-0.249538 2.46314,-0.83166 0.67056,-0.582121 1.09074,-1.453442 1.09243,-2.34143 0.002,-0.978805 -0.50248,-1.927834 -1.26384,-2.542967 -0.76137,-0.615134 -1.75738,-0.90738 -2.73604,-0.890448 -1.22737,0.02124 -2.44627,0.52812 -3.30108,1.409136 -0.85482,0.881016 -1.32656,2.130569 -1.23151,3.354442 0.0767,0.987211 0.51436,1.93786 1.1941,2.657872 0.67974,0.720011 1.59424,1.208773 2.56535,1.402224 0.9711,0.193451 1.99452,0.09485 2.92148,-0.253304 0.92695,-0.348157 1.75656,-0.942057 2.40738,-1.688315 0.84716,-0.971397 1.39125,-2.205358 1.5267,-3.487134 0.13545,-1.281776 -0.14001,-2.605348 -0.78461,-3.721495 -0.59726,-1.034165 -1.50612,-1.884095 -2.57363,-2.419474 -1.06751,-0.535378 -2.28933,-0.755469 -3.47757,-0.635917 -1.18825,0.119552 -2.33932,0.577161 -3.29123,1.298328 -0.95191,0.721166 -1.70272,1.702984 -2.15835,2.806893 -0.72814,1.764148 -0.67796,3.820991 0.0751,5.57463 0.7531,1.753638 2.18697,3.191936 3.91055,4.0115 1.32073,0.628008 2.80764,0.901721 4.26558,0.787224 1.45795,-0.114497 2.88342,-0.616705 4.09232,-1.439669 1.2089,-0.822964 2.1985,-1.964556 2.84341,-3.277112 0.64492,-1.312556 0.94384,-2.792943 0.86082,-4.253019 -0.0979,-1.721968 -0.72952,-3.407625 -1.7747,-4.779615 -1.04518,-1.371989 -2.49823,-2.426425 -4.12139,-3.009624 -1.62315,-0.583199 -3.41034,-0.695157 -5.097,-0.334673 -1.68665,0.360484 -3.26831,1.190491 -4.53417,2.36197 -2.36938,2.192726 -3.54263,5.582581 -3.11979,8.783083 0.42285,3.200502 2.40232,6.140925 5.16483,7.811418 1.91276,1.156648 4.18009,1.721209 6.41116,1.58407 2.23107,-0.137139 4.4156,-0.977233 6.15587,-2.38007 1.74027,-1.402837 3.02649,-3.363038 3.60865,-5.521178 0.58217,-2.15814 0.45524,-4.503312 -0.36802,-6.581467 -1.03677,-2.61712 -3.13062,-4.734298 -5.57847,-6.124341 -3.11775,-1.770453 -6.89377,-2.419734 -10.38522,-1.604448 -3.49145,0.815285 -6.64254,3.133237 -8.29686,6.314133 -1.20828,2.323247 -1.60418,5.058158 -1.11019,7.629807 0.49399,2.571649 1.87363,4.963641 3.84835,6.683494 1.72354,1.501095 3.87092,2.482858 6.10983,2.942362 2.23892,0.459505 4.56711,0.408166 6.81404,-0.01041 4.49386,-0.837153 8.59162,-3.096412 12.42799,-5.581935 5.27407,-3.416988 10.22835,-7.327329 14.77707,-11.663318"
       id="path1370"
       inkscape:path-effect="#path-effect1372"
       inkscape:original-d="m 850.23857,66.842552 c 0.59571,-1.031491 1.19042,-2.063982 1.78413,-3.097473 0.59372,-1.033491 -2.50565,0.619292 -3.75998,0.927438 -1.25433,0.308145 1.96075,2.369171 2.93962,3.552257 0.97888,1.183086 2.37138,-2.114393 3.55557,-3.17309 1.18419,-1.058696 -2.66558,-2.287943 -3.99988,-3.433415 -1.33429,-1.145472 -3.02072,3.176718 -4.53259,4.763578 -1.51186,1.586859 6.05988,1.413318 9.08831,2.118477 3.02844,0.705159 0.49573,-4.804753 0.74209,-7.208629 0.24637,-2.403877 -7.66618,0.700886 -11.50078,1.04983 -3.83459,0.348943 2.65812,6.391753 3.98568,9.58613 1.32756,3.194377 8.04242,-5.454051 12.06213,-8.182576 4.01971,-2.728525 -10.35051,-3.840295 -15.52726,-5.761942 -5.17675,-1.921648 1.36436,11.064001 2.04504,16.594501 0.68068,5.530501 10.53944,-8.598097 15.80766,-12.898645 5.26822,-4.300549 -3.71798,-4.081894 -5.57847,-6.124341 -1.86049,-2.042447 -12.45372,3.14079 -18.68208,4.709685 -6.22836,1.568895 1.82644,9.543201 2.73816,14.313301 0.91172,4.7701 16.90224,-1.765655 25.35186,-2.649983 8.44962,-0.884328 9.85238,-7.774545 14.77707,-11.663318" />
    <path
       style="fill:none;fill-rule:evenodd;stroke:#000000;stroke-width:0.442;stroke-linecap:butt;stroke-linejoin:miter;stroke-opacity:1;stroke-dasharray:none"
       d="m 840.2932,54.18626 c -2.12407,1.045917 -3.93739,2.713491 -5.15721,4.742692 -1.62121,2.696922 -2.16271,6.011071 -1.54505,9.096552 0.61767,3.085481 2.37648,5.918628 4.82888,7.890281 2.60269,2.092481 5.9107,3.197077 9.23794,3.483324 3.32725,0.286246 6.68291,-0.208514 9.91352,-1.054486 9.32923,-2.442966 17.84444,-7.898095 23.96357,-15.351871"
       id="path1374"
       inkscape:path-effect="#path-effect1376"
       inkscape:original-d="m 840.2932,54.18626 c -1.71807,1.581897 -3.43714,3.162795 -5.15721,4.742692 -1.72007,1.579897 2.19022,11.325555 3.28383,16.986833 1.0936,5.661277 12.76864,1.620225 19.15146,2.428838 6.38282,0.808613 15.97671,-10.23358 23.96357,-15.351871" />
    <path
       style="fill:none;fill-rule:evenodd;stroke:#000000;stroke-width:0.442;stroke-linecap:butt;stroke-linejoin:miter;stroke-opacity:1;stroke-dasharray:none"
       d="m 835.20279,53.987993 c -2.73983,2.56232 -4.59567,6.052813 -5.1877,9.757086 -0.40337,2.523842 -0.22624,5.15198 0.61875,7.564134 0.84498,2.412154 2.36843,4.598771 4.40706,6.140355 2.21405,1.674238 4.93316,2.53946 7.64627,3.126064 6.55526,1.417317 13.45941,1.357755 19.91745,-0.451679 6.45803,-1.809434 12.44843,-5.396573 16.88318,-10.427805 0.72525,-0.822793 1.40876,-1.682364 2.04705,-2.574305"
       id="path1382"
       inkscape:path-effect="#path-effect1384"
       inkscape:original-d="m 835.20279,53.987993 c -1.72823,3.253362 -3.45747,6.505724 -5.1877,9.757086 -1.73024,3.251362 3.35154,9.137326 5.02581,13.704489 1.67428,4.567164 5.09851,2.085043 7.64627,3.126064 2.54775,1.041021 24.53475,-7.25199 36.80063,-10.879484 12.26588,-3.627495 1.3657,-1.715204 2.04705,-2.574305" />
  </g>
</svg>
